<svg xmlns="http://www.w3.org/2000/svg" width="1093" height="1235" fill="none" viewBox="0 0 1093 1235"><path fill="#fff" d="M0 0h1093v1235H0z" style="fill:#fff;fill-opacity:1"/><path fill="#000" d="M657.876 875.034a7.057 7.057 0 0 1 13.846 2.73l-4.591 23.283 27.723 7.851a7.056 7.056 0 0 1-3.845 13.578l-29.093-8.239 11.74 17.503a7.057 7.057 0 0 1-11.721 7.86l-28.766-42.892a7.057 7.057 0 0 1 11.721-7.86l7.932 11.826z" style="fill:#000;fill-opacity:1"/><path fill="#000" fill-rule="evenodd" d="M690.75 382.44c12.119-.014 22.573-.359 34.62-.092 12.109.267 19.836 1.149 23.618 2.151l.014.004a44.9 44.9 0 0 1 19.852 11.249l.594.592c4.783 4.854 8.837 10.205 11.868 15.657 1.852 3.332 3.457 9.709 3.428 24.752l-.008 1.526-.427 52.752c-.126 15.526-1.608 22.571-3.707 26.637-4.372 8.468-10.752 15.415-19.913 20.792l-.147.085-.177.106-.027.015a44.1 44.1 0 0 1-14.294 5.392l-.157.03c-4.53.859-20.474 1.866-40.82 1.736-20.535-.131-36.253-1.377-40.895-2.415-4.616-1.035-7.633-2.75-11.885-6.838-5.748-5.527-10.391-11.799-21.249-24.091l-.048-.054-1.856-2.087-.136-.153-.848-.921-.105-.111-.513-.535c-10.841-11.156-25.443-16.838-39.96-16.838h-81.875c-14.748 0-29.583 5.863-40.473 17.371l-.11.118-.109.118-.607.66-.106.114-.104.116c-5.282 5.899-9.791 11.275-13.468 15.58-3.831 4.487-6.668 7.702-9.276 10.264-4.54 4.459-7.629 6.229-12.349 7.287-4.642 1.038-20.358 2.284-40.892 2.415-20.347.13-36.291-.877-40.822-1.736l-.605-.117a44.2 44.2 0 0 1-13.873-5.32l-.113-.067-.074-.044-.987-.59c-8.688-5.293-14.817-12.06-19.062-20.282-2.013-3.901-3.499-10.644-3.693-25.279l-.014-1.358-.427-52.82c-.13-16.036 1.482-22.724 3.42-26.21 3.035-5.46 7.098-10.821 11.895-15.685a44.9 44.9 0 0 1 20.418-11.813l.015-.004c3.782-1.002 11.509-1.884 23.619-2.151 12.047-.267 22.5.078 34.619.092l72.493.036c47.936.015 95.307.015 143.243 0zm-300.23 38.294c-3.751-3.751-9.834-3.751-13.585 0s-3.751 9.834 0 13.585l28.528 28.528-28.528 28.528c-3.751 3.751-3.751 9.834 0 13.585s9.833 3.751 13.584 0l35.302-35.302.019-.018c3.751-3.752 3.751-9.834 0-13.585zm300.825 5.791c-19.063 0-34.517 15.454-34.517 34.517.001 19.063 15.454 34.516 34.517 34.516 19.063-.001 34.516-15.454 34.516-34.516 0-19.063-15.453-34.516-34.516-34.517" clip-rule="evenodd" style="fill:#000;fill-opacity:1"/><path fill="#000" d="M278.56 273.197c22.046-.724 40.505 6.388 56.626 21.449-25.344 21.322-38.524 34.516-56.356 62.923l-5.495 9.962c-16.749-28.739-18.367-45.435-3.108-74.725-13.554-.075-19.624.547-32.302 5.14 9.169-14.286 20.697-21.645 37.244-24.611q1.696-.081 3.391-.138M801.578 273.423c24.06-3.244 42.521 4.52 54.306 29.246-14.096-8.213-18.747-10.089-33.624-9.685 16.232 23.571 13.093 45.029.368 69.22-1.32 2.493-.951 2.501-2.992 4.121-20.811-34.118-30.441-46.689-62.125-71.869 13.12-11.81 26.72-18.342 44.067-21.033" style="fill:#000;fill-opacity:1"/><path fill="#000" fill-rule="evenodd" d="M295.239 205.781c33.72.375 58.542 10.017 84.327 31.455a206.7 206.7 0 0 1 39.498-16.502c30.378-9.147 65.513-11.513 96.825-6.093 6.419 1.111 25.872 7.052 30.263 6.791 11.164-.665 26.084-6.119 38.338-7.772 45.755-6.17 88.732 1.799 129.059 23.482 26.205-19.722 51.004-31.668 84.72-31.282a113.85 113.85 0 0 1 80.165 34.269 113.26 113.26 0 0 1 32.739 81.069c-.514 39.912-18.805 69.6-46.673 96.568-.446 8.201-1.758 54.046.214 58.608 30.226 70.048 26.171 133.271-10.375 206.705a4852 4852 0 0 1 25.493 56.199c4.151 9.192 11.388 23.564 14.072 32.636-3.773 8.42-15.512 22.243-21.652 30.021a3258 3258 0 0 0-31.847 40.687l-96.535 125.75c-12.478 16.356-25.273 33.698-38.071 50.568-10.678 14.08-31.102 13.05-40.234-2.08a1915 1915 0 0 0-29.772-48.633c-10.066-15.846-21.664-35.869-32.867-52.4-4.431-6.539-11.91-10.233-19.808-10.221l-73.533.116c-7.908.012-15.374 3.75-19.663 10.394-4.909 7.606-9.901 16.007-14.079 22.75l-42.673 69.654c-1.64 2.68-3.35 5.53-5.104 8.46-9.062 15.12-29.218 16-39.726 1.85-1.125-1.52-2.233-3-3.317-4.45a5446 5446 0 0 0-42.166-55.681L236.41 820.971c-7.796-10.119-31.775-37.567-35.641-47.419-2.438-6.219 32.652-77.764 38.46-90.249-24.437-54.33-39.038-103.753-25.39-164.539 3.982-17.737 11.505-30.198 15.705-46.968.691-2.757.103-17.279.03-21.2l-.324-32.997c-25.896-26.304-44.223-49.54-46.807-88.527a117.32 117.32 0 0 1 29.337-84.797c22.979-25.802 49.684-36.395 83.459-38.494m-40.162 499.55c-6.21 12.399-24.946 53.37-28.312 65.503C244.141 794.02 269 822.6 287.851 845.967l55.589 67.903c7.937 9.776 59.823 75.099 65.647 77.886 6.756-1.698 17.104-20.186 21.686-26.643 16.188-23.606 40.141-55.744 54.51-79.325-19.101-11.73-40.035-21.849-58.738-33.674-66.199-41.862-123.651-84.624-171.468-146.783m582.695.608c-64.517 83.082-141.142 128.126-229.36 180.149l55.085 79.479c5.068 7.289 13.651 21.129 20.468 25.802l1.989.232c9.93-9.476 34.154-40.499 43.784-52.221l120.416-147.358c4.373-5.325 13.849-16.292 17.098-21.703-3.009-9.243-24.224-59.123-29.48-64.38M251.478 491.892c-15.231 29.791-21.55 75.286-14.487 113.425 2.406-11.742 5.179-23.52 14.487-32.96-1.779 59.147 11.046 87.579 48.321 133.505-.974-20.219-.923-40.747 3.368-60.649 4.428 14.843 9.678 30.783 17.059 44.391 27.768 51.192 82.942 93.303 139.071 108.643-26.466-35.791-45.086-60.564-48.051-107.185 33.992 54.965 81.555 80.586 145.994 79.317 52.072-1.026 95.116-31.101 125.106-79.146-1.629 42.36-23.204 74.825-48.122 107.358 57.263-18.582 117.518-57.403 145.403-112.059 6.972-13.702 13.205-28.927 16.975-46.59 4.236 20.168 5.689 41.975 0 62.325 26.427-37.472 40.245-67.996 45.176-114.699 1.209-11.455.771-22.661 1.354-34.057 5.034 9.06 10.873 19.109 15.435 28.287 2.795-30.05-1.93-62.606-16.455-89.341l-11.818-.012c-.177 15.936-1.513 32.175-8.817 46.324-8.387 16.246-20.906 29.642-37.59 39.414a90.2 90.2 0 0 1-29.429 11.099c-18.862 3.577-80.184 3.528-100.343-.986-15.313-3.432-26.335-11.238-35.783-20.583a24 24 0 0 1 .036 5.62c-2.273 19.901-17.27 33.996-35.011 41.165-7.709 3.439-17.879 5.745-24.276 11.336-7.639 6.671-5.719 21.994 1.389 28.288 7.958 6.894 20.718 7.606 30.75 7.194 18.161-.746 32.805-4.161 48.325-13.945 5.574-3.507 13.914-10.656 18.424-15.424-12.288 41.519-51.655 65.461-93.334 69.001-31.804 2.701-70.884-6.036-97.376-24.206-13.691-9.389-28.152-24.61-31.1-41.562 20.369 20.939 49.954 27.363 78.254 25.785 16.328-.909 25.889-9.57 24.877-26.496-.763-12.614-19.426-15.41-28.319-19.612-19.35-7.074-38.216-27.266-35.638-47.538-9.536 9.519-20.651 17.497-36.177 20.977-20.158 4.514-81.48 4.563-100.344.986a90.2 90.2 0 0 1-29.429-11.099c-16.684-9.772-29.202-23.168-37.59-39.414-7.387-14.31-8.672-30.757-8.825-46.868zm474.399-132.538c-10.778-.239-21.048-.003-30.938.068l-4.216.018h-.013c-97.559.063-190.594.063-288.152 0h-.012l-4.216-.018c-9.889-.071-20.16-.307-30.938-.068l-2.287.058c-11.3.329-20.528 1.216-26.715 2.855l-.007.002-1.095.298a67.9 67.9 0 0 0-29.789 17.572l-1.142 1.175c-5.664 5.924-10.626 12.531-14.507 19.511l-.465.864c-4.694 9.02-5.98 20.796-5.851 36.708l.427 52.821.016 1.476.022 1.408c.27 14.435 1.738 25.415 6.231 34.117l.588 1.117c6.165 11.479 15.05 21.021 26.986 28.283l1.202.718.064.037.063.038.615.361a67.2 67.2 0 0 0 20.58 7.764l.724.141.023.004.021.004c6.548 1.241 22.777 2.148 41.482 2.15l3.772-.012c19.728-.126 37.287-1.249 45.057-2.818l.721-.153c19.743-4.427 27.011-17.688 47.196-40.232l.607-.66c6.351-6.712 15.05-10.18 23.766-10.18h81.875l.816.01c8.441.21 16.797 3.668 22.95 10.171l.608.659 1.855 2.087c18.795 21.277 26.213 33.857 45.339 38.145l.721.153c7.77 1.569 25.33 2.692 45.058 2.818l3.772.012c18.705-.002 34.934-.909 41.481-2.15l.023-.004.021-.004a67.2 67.2 0 0 0 21.284-7.894l.635-.372.064-.038.064-.037c12.532-7.34 21.799-17.12 28.169-28.966l.607-1.152c4.638-8.983 6.053-20.393 6.253-35.526l.016-1.475.428-52.821.008-1.526c.035-15.646-1.409-27.202-6.326-36.046-4.139-7.446-9.509-14.467-15.648-20.686l-.804-.8a67.9 67.9 0 0 0-30.08-17.07l-.008-.002c-6.599-1.749-16.658-2.641-29.001-2.913m-351.876-90.491c-23.431-20.891-48.725-36.693-81.476-34.784-24.561 1.909-45.003 10.607-61.237 29.632a88.52 88.52 0 0 0-20.594 65.442c2.362 25.928 15.847 49.242 35.843 65.647a275 275 0 0 0 8.289 6.422l11.981-.006c1.262-3.986 2.879-7.858 4.941-11.568 5.243-9.43 11.92-18.111 19.403-25.688a90.9 90.9 0 0 1 41.349-23.927c18.814-4.984 49.52-3.618 70.074-3.594 21.198.014 42.183.023 63.047.031 4.669-.191 8.049-4.403 8.518-9.109.611-6.142 3.348-11.605 11.25-11.617 20.526-.029 40.897-.044 61.242-.044v.019l.008-.019c20.345 0 40.716.015 61.242.044 7.902.012 10.639 5.475 11.25 11.617.469 4.706 3.849 8.918 8.518 9.109 20.864-.008 41.849-.017 63.048-.031 20.554-.024 51.259-1.39 70.073 3.594a90.9 90.9 0 0 1 41.35 23.927c7.482 7.577 14.158 16.258 19.401 25.688 2.021 3.635 3.612 7.427 4.863 11.329l12.804-.005c23.589-18.59 39.779-40.161 43.492-70.792a87.94 87.94 0 0 0-18.162-64.006 84.48 84.48 0 0 0-56.808-31.666c-27.911-3.079-53.927 6.614-75.441 24.03a659 659 0 0 0-12.554 10.608c-12.33-6.087-23.915-11.936-36.948-16.492-44.435-15.532-92.257-17.151-136.16.63-49.319-19.672-101.86-15.645-150.245 5.163a584 584 0 0 0-22.361 10.416" clip-rule="evenodd" style="fill:#000;fill-opacity:1"/></svg>